<svg width="134" height="28" viewBox="0 0 134 28" fill="none" xmlns="http://www.w3.org/2000/svg">
<g clip-path="url(#clip0_6_8874)">
<path d="M15.4961 22.5122C12.0657 22.5123 9.26855 23.3 9.26855 19.8706L9.26855 13.7515C9.26855 12.4059 8.70621 11.2999 7.83008 10.562C6.95423 11.2999 6.3916 12.4051 6.3916 13.7505V22.4155L0 22.4155V12.6187C0 8.6311 3.26244 5.3669 7.25098 5.3667C7.4477 5.3667 7.64305 5.37455 7.83594 5.39014C8.025 5.37516 8.21644 5.36768 8.40918 5.36768C12.3967 5.36787 15.6592 8.63208 15.6592 12.6196L15.6592 22.5112L15.6602 22.5122H15.4961ZM24 22.6333H17.6094V13.7495C17.6094 13.486 17.5871 13.2318 17.5459 12.9878V12.6177C17.5458 9.88763 16.3342 7.42905 14.4229 5.75146C15.153 5.50224 15.9365 5.3667 16.749 5.3667C20.7374 5.3669 23.9998 8.6303 24 12.6177V22.6333Z" fill="white"/>
<path d="M28.32 22V7.1H31.32L36.9 14.5H35.5L40.92 7.1H43.92V22H40.82V10.52L42.06 10.8L36.32 18.2H35.92L30.38 10.8L31.42 10.52V22H28.32ZM46.3422 22V11.08H49.3422V22H46.3422ZM46.3422 10.1V7.1H49.3422V10.1H46.3422ZM56.8975 22.24C55.8042 22.24 54.8175 21.9933 53.9375 21.5C53.0708 20.9933 52.3775 20.3067 51.8575 19.44C51.3508 18.5733 51.0975 17.6 51.0975 16.52C51.0975 15.44 51.3508 14.4733 51.8575 13.62C52.3642 12.7533 53.0575 12.0733 53.9375 11.58C54.8175 11.0867 55.8042 10.84 56.8975 10.84C57.7108 10.84 58.4642 10.98 59.1575 11.26C59.8508 11.54 60.4442 11.9333 60.9375 12.44C61.4308 12.9333 61.7842 13.52 61.9975 14.2L59.3975 15.32C59.2108 14.7733 58.8908 14.34 58.4375 14.02C57.9975 13.7 57.4842 13.54 56.8975 13.54C56.3775 13.54 55.9108 13.6667 55.4975 13.92C55.0975 14.1733 54.7775 14.5267 54.5375 14.98C54.3108 15.4333 54.1975 15.9533 54.1975 16.54C54.1975 17.1267 54.3108 17.6467 54.5375 18.1C54.7775 18.5533 55.0975 18.9067 55.4975 19.16C55.9108 19.4133 56.3775 19.54 56.8975 19.54C57.4975 19.54 58.0175 19.38 58.4575 19.06C58.8975 18.74 59.2108 18.3067 59.3975 17.76L61.9975 18.9C61.7975 19.54 61.4508 20.1133 60.9575 20.62C60.4642 21.1267 59.8708 21.5267 59.1775 21.82C58.4842 22.1 57.7242 22.24 56.8975 22.24ZM63.7641 22V11.08H66.5641V13.7L66.3641 13.32C66.6041 12.4 66.9974 11.78 67.5441 11.46C68.1041 11.1267 68.7641 10.96 69.5241 10.96H70.1641V13.56H69.2241C68.4907 13.56 67.8974 13.7867 67.4441 14.24C66.9907 14.68 66.7641 15.3067 66.7641 16.12V22H63.7641ZM76.8989 22.24C75.8189 22.24 74.8322 21.9933 73.9389 21.5C73.0589 21.0067 72.3522 20.3333 71.8189 19.48C71.2989 18.6133 71.0389 17.6333 71.0389 16.54C71.0389 15.4333 71.2989 14.4533 71.8189 13.6C72.3522 12.7467 73.0589 12.0733 73.9389 11.58C74.8322 11.0867 75.8189 10.84 76.8989 10.84C77.9789 10.84 78.9589 11.0867 79.8389 11.58C80.7189 12.0733 81.4189 12.7467 81.9389 13.6C82.4722 14.4533 82.7389 15.4333 82.7389 16.54C82.7389 17.6333 82.4722 18.6133 81.9389 19.48C81.4189 20.3333 80.7189 21.0067 79.8389 21.5C78.9589 21.9933 77.9789 22.24 76.8989 22.24ZM76.8989 19.54C77.4456 19.54 77.9189 19.4133 78.3189 19.16C78.7322 18.9067 79.0522 18.5533 79.2789 18.1C79.5189 17.6467 79.6389 17.1267 79.6389 16.54C79.6389 15.9533 79.5189 15.44 79.2789 15C79.0522 14.5467 78.7322 14.1933 78.3189 13.94C77.9189 13.6733 77.4456 13.54 76.8989 13.54C76.3522 13.54 75.8722 13.6733 75.4589 13.94C75.0456 14.1933 74.7189 14.5467 74.4789 15C74.2522 15.44 74.1389 15.9533 74.1389 16.54C74.1389 17.1267 74.2522 17.6467 74.4789 18.1C74.7189 18.5533 75.0456 18.9067 75.4589 19.16C75.8722 19.4133 76.3522 19.54 76.8989 19.54ZM91.8063 22.24C90.7396 22.24 89.7463 22.0467 88.8263 21.66C87.9196 21.2733 87.1263 20.7333 86.4463 20.04C85.7663 19.3467 85.2329 18.5333 84.8463 17.6C84.4729 16.6667 84.2863 15.6467 84.2863 14.54C84.2863 13.4333 84.4729 12.4133 84.8463 11.48C85.2196 10.5333 85.7463 9.72 86.4263 9.04C87.1063 8.34667 87.8996 7.81333 88.8063 7.44C89.7263 7.05333 90.7263 6.86 91.8063 6.86C92.8863 6.86 93.8529 7.04 94.7062 7.4C95.5729 7.76 96.3063 8.24 96.9063 8.84C97.5063 9.44 97.9329 10.1067 98.1863 10.84L95.4463 12.16C95.1929 11.44 94.7463 10.8467 94.1063 10.38C93.4796 9.9 92.7129 9.66 91.8063 9.66C90.9263 9.66 90.1529 9.86667 89.4863 10.28C88.8196 10.6933 88.2996 11.2667 87.9263 12C87.5663 12.72 87.3863 13.5667 87.3863 14.54C87.3863 15.5133 87.5663 16.3667 87.9263 17.1C88.2996 17.8333 88.8196 18.4067 89.4863 18.82C90.1529 19.2333 90.9263 19.44 91.8063 19.44C92.7129 19.44 93.4796 19.2067 94.1063 18.74C94.7463 18.26 95.1929 17.66 95.4463 16.94L98.1863 18.26C97.9329 18.9933 97.5063 19.66 96.9063 20.26C96.3063 20.86 95.5729 21.34 94.7062 21.7C93.8529 22.06 92.8863 22.24 91.8063 22.24ZM99.9555 22V11.08H102.755V13.7L102.555 13.32C102.795 12.4 103.189 11.78 103.735 11.46C104.295 11.1267 104.955 10.96 105.715 10.96H106.355V13.56H105.415C104.682 13.56 104.089 13.7867 103.635 14.24C103.182 14.68 102.955 15.3067 102.955 16.12V22H99.9555ZM113.09 22.24C112.01 22.24 111.024 21.9933 110.13 21.5C109.25 21.0067 108.544 20.3333 108.01 19.48C107.49 18.6133 107.23 17.6333 107.23 16.54C107.23 15.4333 107.49 14.4533 108.01 13.6C108.544 12.7467 109.25 12.0733 110.13 11.58C111.024 11.0867 112.01 10.84 113.09 10.84C114.17 10.84 115.15 11.0867 116.03 11.58C116.91 12.0733 117.61 12.7467 118.13 13.6C118.664 14.4533 118.93 15.4333 118.93 16.54C118.93 17.6333 118.664 18.6133 118.13 19.48C117.61 20.3333 116.91 21.0067 116.03 21.5C115.15 21.9933 114.17 22.24 113.09 22.24ZM113.09 19.54C113.637 19.54 114.11 19.4133 114.51 19.16C114.924 18.9067 115.244 18.5533 115.47 18.1C115.71 17.6467 115.83 17.1267 115.83 16.54C115.83 15.9533 115.71 15.44 115.47 15C115.244 14.5467 114.924 14.1933 114.51 13.94C114.11 13.6733 113.637 13.54 113.09 13.54C112.544 13.54 112.064 13.6733 111.65 13.94C111.237 14.1933 110.91 14.5467 110.67 15C110.444 15.44 110.33 15.9533 110.33 16.54C110.33 17.1267 110.444 17.6467 110.67 18.1C110.91 18.5533 111.237 18.9067 111.65 19.16C112.064 19.4133 112.544 19.54 113.09 19.54ZM120.698 26V11.08H123.498V13.16L123.238 12.56C123.598 12.0133 124.084 11.5933 124.698 11.3C125.324 10.9933 126.038 10.84 126.838 10.84C127.878 10.84 128.818 11.0933 129.658 11.6C130.498 12.1067 131.164 12.7933 131.658 13.66C132.151 14.5133 132.398 15.4733 132.398 16.54C132.398 17.5933 132.151 18.5533 131.658 19.42C131.178 20.2867 130.518 20.9733 129.678 21.48C128.838 21.9867 127.884 22.24 126.818 22.24C126.071 22.24 125.378 22.1067 124.738 21.84C124.111 21.56 123.604 21.1533 123.218 20.62L123.698 20V26H120.698ZM126.458 19.54C127.018 19.54 127.511 19.4133 127.938 19.16C128.364 18.9067 128.698 18.5533 128.938 18.1C129.178 17.6467 129.298 17.1267 129.298 16.54C129.298 15.9533 129.178 15.44 128.938 15C128.698 14.5467 128.364 14.1933 127.938 13.94C127.511 13.6733 127.018 13.54 126.458 13.54C125.924 13.54 125.444 13.6667 125.018 13.92C124.604 14.1733 124.278 14.5267 124.038 14.98C123.811 15.4333 123.698 15.9533 123.698 16.54C123.698 17.1267 123.811 17.6467 124.038 18.1C124.278 18.5533 124.604 18.9067 125.018 19.16C125.444 19.4133 125.924 19.54 126.458 19.54Z" fill="white"/>
</g>
<defs>
<clipPath id="clip0_6_8874">
<rect width="134" height="28" fill="white"/>
</clipPath>
</defs>
</svg>
